<svg version="1.1" xmlns="http://www.w3.org/2000/svg" viewBox="0 0 1237.7777557373047 488.4444122314453" width="1237.7777557373047" height="488.4444122314453">
  <!-- svg-source:excalidraw -->
  
  <defs>
    <style>
      @font-face {
        font-family: "Virgil";
        src: url("https://excalidraw.com/Virgil.woff2");
      }
      @font-face {
        font-family: "Cascadia";
        src: url("https://excalidraw.com/Cascadia.woff2");
      }
    </style>
  </defs>
  <rect x="0" y="0" width="1237.7777557373047" height="488.4444122314453" fill="#ffffff"/><g stroke-linecap="round" transform="translate(367.33335876464844 124.66664123535156) rotate(0 185.77777099609375 96)"><path d="M-0.85 -0.79 C123.88 -2.53, 247.47 -3.01, 372.42 0.94 M-0.08 0.28 C118.85 -1.76, 237.64 -1.02, 371.94 0.39 M371.72 -1.34 C367.86 60.57, 371.51 122.99, 370.97 193.79 M372.47 0.84 C369.88 48.92, 370.27 99.11, 371.57 191.95 M372.67 192.16 C278.67 194.24, 183.95 192.48, -0.02 192.86 M371.25 192.6 C251.33 193.88, 130.82 193.31, -0.26 191.78 M-0.71 191.49 C1.5 150.32, 0.38 107.97, 0.39 -0.92 M-0.62 192.51 C1.77 133.78, 0.54 73.57, 0.89 -0.36" stroke="#000000" stroke-width="1" fill="none"/></g><g stroke-linecap="round" transform="translate(946.8888397216797 10) rotate(0 140.4444580078125 148.88887786865234)"><path d="M142.53 0.95 C184.76 45.78, 226.86 91.98, 281.28 147.93 M141.48 0.72 C183.24 45.05, 225.28 88.72, 280.14 148.23 M279.25 147.68 C243.82 185.81, 208.26 225.19, 139.77 298.56 M280.48 148.51 C235 197.1, 191.63 244.83, 140.7 297.24 M142.22 296.92 C86.15 240.03, 32.71 181.24, 1.69 148.53 M140.8 298.52 C97.38 252.16, 54.98 206.08, -0.53 148.62 M1.25 150.45 C43.42 104.58, 85.95 58.89, 140.14 0.24 M0.7 148.89 C39.86 105.8, 81.64 61.53, 141.69 -0.58" stroke="#000000" stroke-width="1" fill="none"/></g><g transform="translate(449.1111297607422 35.722198486328125) rotate(0 145 22.5)"><text x="0" y="32" font-family="Virgil, Segoe UI Emoji" font-size="36px" fill="#000000" text-anchor="start" style="white-space: pre;" direction="ltr">Welcome to the </text></g><g stroke-linecap="round"><g transform="translate(746.8887176513672 242.888916015625) rotate(178.89199761782572 125.3333740234375 -5.77777099609375)"><path d="M-0.31 0.04 C41.7 -2.26, 209.53 -10.85, 251.32 -12.61 M1.72 -0.99 C43.7 -2.66, 209.41 -9.73, 250.71 -11.63" stroke="#000000" stroke-width="1" fill="none"/></g></g><g stroke-linecap="round"><g transform="translate(564.6666717529297 341.55552673339844) rotate(0 -7.555572509765625 68.44444274902344)"><path d="M0.06 0.13 C-2.39 23.08, -12.41 115.3, -14.98 138.03 M-1.36 -0.84 C-3.94 21.76, -13.38 113.43, -15.85 136.51" stroke="#000000" stroke-width="1" fill="none"/></g><g transform="translate(564.6666717529297 341.55552673339844) rotate(0 -7.555572509765625 68.44444274902344)"><path d="M-22.89 107.62 C-19.09 115.19, -19.62 124.64, -15.08 137.81 M-22.77 107.66 C-21.08 116.74, -18.55 126.19, -15.06 137.37" stroke="#000000" stroke-width="1" fill="none"/></g><g transform="translate(564.6666717529297 341.55552673339844) rotate(0 -7.555572509765625 68.44444274902344)"><path d="M-2.49 109.77 C-4.4 116.74, -10.63 125.59, -15.08 137.81 M-2.36 109.81 C-7.01 118.1, -10.85 126.89, -15.06 137.37" stroke="#000000" stroke-width="1" fill="none"/></g></g><g stroke-linecap="round"><g transform="translate(329.1111297607422 153.99998474121094) rotate(0 -159.5555648803711 74.22221374511719)"><path d="M1.03 0.62 C-52.21 25.33, -265.54 124.51, -318.74 149.24 M0.12 -0.11 C-53.32 24.19, -266.4 123.02, -319.5 147.54" stroke="#000000" stroke-width="1" fill="none"/></g><g transform="translate(329.1111297607422 153.99998474121094) rotate(0 -159.5555648803711 74.22221374511719)"><path d="M-297.2 127 C-304.39 135.71, -312.4 142.23, -319.25 146.46 M-298.53 126.3 C-305.17 132.56, -312.37 140.01, -319.95 147.38" stroke="#000000" stroke-width="1" fill="none"/></g><g transform="translate(329.1111297607422 153.99998474121094) rotate(0 -159.5555648803711 74.22221374511719)"><path d="M-288.58 145.63 C-299.03 147.7, -310.14 147.51, -319.25 146.46 M-289.92 144.92 C-299.45 144.84, -309.56 145.97, -319.95 147.38" stroke="#000000" stroke-width="1" fill="none"/></g></g></svg>